<svg xmlns="http://www.w3.org/2000/svg" version="1.1" xmlns:xlink="http://www.w3.org/1999/xlink" xmlns:svgjs="http://svgjs.dev/svgjs" viewBox="0 0 800 800"><defs><linearGradient x1="50%" y1="0%" x2="50%" y2="100%" id="uundulate-grad"><stop stop-color="hsl(37, 99%, 67%)" stop-opacity="1" offset="45%"></stop><stop stop-color="hsl(316, 73%, 52%)" stop-opacity="1" offset="100%"></stop></linearGradient></defs><g stroke-width="2" stroke="url(#uundulate-grad)" fill="none"><path d="M707.7514298076687 376.9087120055001C748.8504642861441 508.07189080437956 673.4888056375001 660.0688425378985 544.209419763652 706.7566406844206C414.9300338898039 753.4444388309428 128.3094120916736 732.1733219076857 87.21037761319838 601.0101431088063C46.111343134723086 469.846964309927 217.6546683931232 123.86118059632167 346.9340542669713 77.17338244979959C476.21344014081933 30.48558430327745 666.6523953291934 245.74553320662073 707.7514298076687 376.9087120055001C748.8504642861441 508.07189080437956 673.4888056375001 660.0688425378985 544.209419763652 706.7566406844206 "></path><path d="M693.7627298399373 377.95836316878C732.9936263875728 503.15957929498313 661.0574976775036 648.2475786769785 537.654447525194 692.8132041804768C414.2513973728845 737.3788296839753 140.65898565648746 717.0745817117753 101.42808910885196 591.8733655855722C62.19719256121647 466.67214945936917 225.94309394423476 136.41299227820053 349.3461440965443 91.84736677470215C472.7491942488539 47.28174127120377 654.5318332923018 252.7571470425769 693.7627298399373 377.95836316878C732.9936263875728 503.15957929498313 661.0574976775036 648.2475786769785 537.654447525194 692.8132041804768 "></path><path d="M679.774029872206 379.00792277932544C717.1367884890017 498.2471762328521 648.6261897175071 636.4262232633239 531.0994752867362 678.8696761237985C413.57276085596516 721.3131289842732 153.0085592213013 701.9757499631305 115.64580060450561 582.7364965096037C78.28304198770991 463.49724305607697 234.2315194953464 148.96471240734502 351.7582339261173 106.52125954687034C469.28494835688844 64.07780668639572 642.4112712554103 259.76866932579867 679.774029872206 379.00792277932544C717.1367884890017 498.2471762328521 648.6261897175071 636.4262232633239 531.0994752867362 678.8696761237985 "></path><path d="M665.7853299044746 380.0575434250271C701.2799505904304 493.33483420587754 636.1948817575108 624.6049288848258 524.5445030482782 664.9262091022766C412.8941243390459 705.2474893197276 165.35813278611516 686.876979249642 129.86351210015926 573.5996884687916C94.36889141420329 460.32239768794125 242.51994504645796 161.51649357164575 354.17032375569033 121.19521335419483C465.8207024649229 80.87393313674386 630.2907092185187 266.7802526441767 665.7853299044746 380.0575434250271C701.2799505904304 493.33483420587754 636.1948817575108 624.6049288848258 524.5445030482782 664.9262091022766 "></path><path d="M651.7966299367431 381.1071640707288C685.4231126918593 488.42249217890287 623.7635737975143 612.7836345063274 517.9895308098204 650.9827420807546C412.21548782212653 689.1818496551817 177.70770635092902 671.7782085361533 144.08122359581284 564.4628804279793C110.45474084069673 457.1475523198053 250.80837059756954 174.06827473594643 356.58241358526345 135.86916716151927C462.3564565729573 97.67005958709206 618.170147181627 273.7918359625547 651.7966299367431 381.1071640707288C685.4231126918593 488.42249217890287 623.7635737975143 612.7836345063274 517.9895308098204 650.9827420807546 "></path><path d="M637.8079299690119 382.15675419885247C669.5662747932881 483.5101196343501 611.3322658375179 600.9623096102512 511.43455857136246 637.0392445416546C411.53685130520716 673.1161794730581 190.0572799157428 656.6794073050867 158.2989350914665 555.3260418695891C126.54059026719011 453.9726764340912 259.09679614868116 186.62002538266904 358.99450341483646 150.54309045126558C458.89221068099187 114.46615551986213 606.0495851447354 280.80338876335463 637.8079299690119 382.15675419885247C669.5662747932881 483.5101196343501 611.3322658375179 600.9623096102512 511.43455857136246 637.0392445416546 "></path><path d="M623.8192452600695 383.2063443269759C653.709452153506 478.5977470897974 598.9009731363104 589.1409847141748 504.8796015916937 623.0957470025545C410.85823004707686 657.0505092909343 202.40686873934573 641.5806060740201 172.5166618459092 546.1892033111986C142.6264549524726 450.79780054837727 267.3852369585818 199.17177602939165 361.40660850319864 165.2170137410119C455.42798004781537 131.2622514526322 593.9290383666329 287.8149415641546 623.8192452600695 383.2063443269759C653.709452153506 478.5977470897974 598.9009731363104 589.1409847141748 504.8796015916937 623.0957470025545 "></path><path d="M609.830545292338 384.2559649726777C637.8526142549349 473.6854050628227 586.4696651763139 577.3196903356766 498.32462935323565 609.1522799810325C410.1795935301575 640.9848696263884 214.75644230415958 626.4818353605315 186.7343733415628 537.0523952703863C158.712304378966 447.6229551802413 275.6736625096934 211.72355719369233 363.81869833277165 179.89096754833633C451.9637341558498 148.0583779029804 581.8084763297413 294.8265248825326 609.830545292338 384.2559649726777C637.8526142549349 473.6854050628227 586.4696651763139 577.3196903356766 498.32462935323565 609.1522799810325 "></path><path d="M595.8418453246068 385.30555510080126C621.9957763563636 468.77303251826993 574.0383572163175 565.4983654396002 491.76965711477783 595.2087824419325C409.5009570132381 624.9191994442647 227.10601586897343 611.3830341294649 200.95208483721643 527.915556711996C174.79815380545944 444.44807929452736 283.96208806080494 224.27530784041494 366.23078816234465 194.5648908380827C448.49948826388436 164.8544738357504 569.6879142928497 301.83807768333253 595.8418453246068 385.30555510080126C621.9957763563636 468.77303251826993 574.0383572163175 565.4983654396002 491.76965711477783 595.2087824419325 "></path><path d="M581.8531453568753 386.35517574650294C606.1389384577924 463.8606904912954 561.607049256321 553.677071061102 485.21468487632 581.2653154204105C408.82232049631875 608.853559779719 239.45558943378728 596.2842634159763 215.16979633287002 518.7787486711838C190.88400323195282 441.2732339263915 292.2505136119165 236.82708900471567 368.64287799191766 209.23884464540714C445.0352423719189 181.6506002860986 557.567352255958 308.84966100171056 581.8531453568753 386.35517574650294C606.1389384577924 463.8606904912954 561.607049256321 553.677071061102 485.21468487632 581.2653154204105 "></path><path d="M567.8644453891438 387.40475061583743C590.2821005592214 458.9483026879535 549.1757412963245 541.8557309062365 478.65971263786196 567.3218026225213C408.1436839793994 592.7878743388061 251.80516299860108 581.1854469261204 229.38750782852367 509.6418948540045C206.96985265844626 438.0983427818884 300.53893916302815 249.37882439264922 371.0549678214908 223.9127526763644C441.57099647995335 198.44668096007962 545.4467902190664 315.8611985437214 567.8644453891438 387.40475061583743C590.2821005592214 458.9483026879535 549.1757412963245 541.8557309062365 478.65971263786196 567.3218026225213 "></path><path d="M553.8757454214125 388.4543712615391C574.4252626606501 454.03596066097884 536.7444333363283 530.0344365277383 472.10474039940414 553.3783356009994C407.4650474624801 576.7222346742604 264.15473656341493 566.0866762126319 243.6052193241773 500.5050868131923C223.05570208493964 434.92349741375256 308.8273647141397 261.9306055569499 373.4670576510638 238.58670648368883C438.1067505879878 215.24280741042782 533.3262281821749 322.87278186209943 553.8757454214125 388.4543712615391C574.4252626606501 454.03596066097884 536.7444333363283 530.0344365277383 472.10474039940414 553.3783356009994 "></path><path d="M539.8870454536811 389.5039613896627C558.568424762079 449.12358811642605 524.3131253763318 518.213111631662 465.5497681609462 539.4348380618992C406.7864109455607 560.6565644921366 276.5043101282288 550.9878749815653 257.8229308198309 491.36824825480187C239.14155151143308 431.7486215280385 317.1157902652513 274.4823562036725 375.8791474806368 253.2606297734352C434.64250469602234 232.03890334319783 521.2056661452832 329.88433466289933 539.8870454536811 389.5039613896627C558.568424762079 449.12358811642605 524.3131253763318 518.213111631662 465.5497681609462 539.4348380618992 "></path><path d="M525.8983149683716 390.5535820353644C542.7115563459297 444.2112460894514 511.8817868987571 506.3918172531637 458.99476540491014 525.4913710403773C406.10774391106327 544.5909248275909 288.8538531754645 535.8891042680766 272.0406117979064 482.2314402139896C255.22737042034834 428.57377615990265 325.4041852987848 287.03413736797324 378.2912067926317 267.93458358075964C431.17822828647866 248.83502979354603 509.0850735908135 336.89591798127736 525.8983149683716 390.5535820353644C542.7115563459297 444.2112460894514 511.8817868987571 506.3918172531637 458.99476540491014 525.4913710403773 "></path><path d="M511.9096455182183 391.60317216348795C526.8547489649366 439.2988735448987 499.45050945633875 494.57049235708746 452.43982368403044 511.5478735012773C405.429137911722 528.5252546454672 301.2034572578565 520.7903030370101 286.2583538111382 473.09460165559926C271.3132503644199 425.39890027418863 333.6926413674745 299.5858880146958 380.7033271397829 282.60850687050595C427.7140129120913 265.6311257263161 496.9645420715001 343.9074707820773 511.9096455182183 391.60317216348795C526.8547489649366 439.2988735448987 499.45050945633875 494.57049235708746 452.43982368403044 511.5478735012773 "></path><path d="M497.92091503290885 392.65277755040063C510.9978805487873 434.38651625913496 487.01917097876424 482.74918271980005 445.8848209279944 497.60439122096625C404.75047087722453 512.4595997221323 313.55300030509216 505.69151706473247 300.47603478921366 463.957778355998C287.39906927333516 422.2240396472637 341.98103640100794 312.13765392020747 383.1153864517778 297.2824454190413C424.24973650254765 282.42723691787523 484.8439495170303 350.9190388416663 497.92091503290885 392.65277755040063C510.9978805487873 434.38651625913496 487.01917097876424 482.74918271980005 445.8848209279944 497.60439122096625 "></path><path d="M483.9321998063883 393.7023981961023C495.1410273914271 429.47417423216035 474.5878477599787 470.92788834130187 439.3298334307474 483.66092419944425C404.0718191015161 496.3939600575866 325.90255861111694 490.5927463512438 314.69373102607824 454.82097031518583C303.48490344103953 419.0491942791278 350.26944669333045 324.6894350845082 385.5274610225618 311.9563992263658C420.7854753517931 299.2233633682234 472.7233722213496 357.9306221600443 483.9321998063883 393.7023981961023C495.1410273914271 429.47417423216035 474.5878477599787 470.92788834130187 439.3298334307474 483.66092419944425 "></path><path d="M469.94351509744604 394.75198832422586C479.28420475164495 424.56180168760756 462.15655505877135 459.1065634452255 432.77487645107857 469.71742666034413C403.3931978433858 480.3282898754628 338.25214743471986 475.49394512017716 328.91145778052095 445.68413175679547C319.570768126322 415.8743183934138 358.55788750323114 337.24118573123076 387.93956611092386 326.63032251611213C417.32124471861664 316.01945930099345 460.60282544324707 364.9421749608442 469.94351509744604 394.75198832422586C479.28420475164495 424.56180168760756 462.15655505877135 459.1065634452255 432.77487645107857 469.71742666034413 "></path><path d="M455.95481512971463 395.8015784523495C463.42736685307375 419.6494291430548 449.72524709877484 447.2852385491492 426.2199042126207 455.7739291212441C402.7145613264665 464.26261969333905 350.6017209995337 460.3951438891105 343.12916927617454 436.5472931984051C335.6566175528154 412.6994425076998 366.8463130543427 349.79293637795337 390.3516559404969 341.30424580585844C413.8569988266511 332.8155552337635 448.4822634063555 371.95372776164413 455.95481512971463 395.8015784523495C463.42736685307375 419.6494291430548 449.72524709877484 447.2852385491492 426.2199042126207 455.7739291212441 "></path><path d="M441.96609990319416 396.8511838392621C447.57051369571354 414.7370718572911 437.29392387998934 435.4639289118619 419.6649167153737 441.83044684093306C402.03590955075805 448.19696477000423 362.9512793055585 445.29635791683285 357.3468655130391 427.41046989880385C351.74245172051974 409.52458188077486 375.1347233466652 362.34470228346504 392.76373051128087 355.9781843543938C410.3927376758965 349.61166642532265 436.3616861106748 378.9652958212331 441.96609990319416 396.8511838392621C447.57051369571354 414.7370718572911 437.29392387998934 435.4639289118619 419.6649167153737 441.83044684093306 "></path><path d="M427.9773999354628 397.9007892261747C431.71367579714234 409.8247145715274 424.8626159199929 423.6426192745746 413.1099444769158 427.88696456062206C401.3572730338387 432.1313098466695 375.3008528703723 430.19757194455525 371.56457700869277 418.27364659920255C367.8283011470132 406.3497212538499 383.4231488977768 374.8964681889767 395.17582034085393 370.65212290292925C406.928491783931 366.40777761688173 424.2411240737832 385.97686388082207 427.9773999354628 397.9007892261747C431.71367579714234 409.8247145715274 424.8626159199929 423.6426192745746 413.1099444769158 427.88696456062206 "></path><path d="M413.9886999677314 398.9503946130874C415.8568378985712 404.9123572857637 412.43130795999645 411.8213096372873 406.5549722384579 413.943482280311C400.67863651691937 416.06565492333476 387.65042643518615 415.0987859722776 385.78228850434635 409.1368232996013C383.91415057350656 403.17486062692495 391.7115744488884 387.4482340944883 397.58791017042694 385.3260614514646C403.4642458919655 383.20388880844087 412.1205620368916 392.98843194041103 413.9886999677314 398.9503946130874C415.8568378985712 404.9123572857637 412.43130795999645 411.8213096372873 406.5549722384579 413.943482280311 "></path></g></svg>